<svg xmlns="http://www.w3.org/2000/svg" viewBox="0 0 48 48"><defs><style>.cls-1{fill:#009ae0;}.cls-2{fill:#eaeff0;}.cls-3{fill:#8fa5a5;}.cls-4{fill:#fd3730;}.cls-5{fill:#2d4a60;}.cls-6{fill:#0081bd;}</style></defs><title>Weighing Scale</title><g id="Weighing_Scale" data-name="Weighing Scale"><path class="cls-1" d="M39,44H9a5.006,5.006,0,0,1-5-5V9A5.006,5.006,0,0,1,9,4H39a5.006,5.006,0,0,1,5,5V39A5.006,5.006,0,0,1,39,44Z" id="id_109" style="fill: rgb(255, 183, 3);"></path><path class="cls-2" d="M32.591,13.434l-1.233,3.81a2,2,0,0,1-2.366,1.323,22.259,22.259,0,0,0-9.984,0,2,2,0,0,1-2.366-1.323l-1.233-3.81a2,2,0,0,1,1.408-2.561,29.987,29.987,0,0,1,14.366,0A2,2,0,0,1,32.591,13.434Z" id="id_110"></path><path class="cls-3" d="M24,13a1,1,0,0,1-1-1V10a1,1,0,0,1,2,0v2A1,1,0,0,1,24,13Z" id="id_111" style="fill: rgb(255, 255, 255);"></path><path class="cls-3" d="M19.169,13.44a1,1,0,0,1-.983-.822l-.36-1.99a1,1,0,0,1,1.968-.356l.36,1.99a1,1,0,0,1-.985,1.178Z" id="id_112" style="fill: rgb(255, 255, 255);"></path><path class="cls-3" d="M28.851,13.44a1,1,0,0,1-.985-1.178l.36-1.99a1,1,0,1,1,1.968.356l-.36,1.99A1,1,0,0,1,28.851,13.44Z" id="id_113" style="fill: rgb(255, 255, 255);"></path><path class="cls-4" d="M24,19a1,1,0,0,1-1-1V15a1,1,0,0,1,2,0v3A1,1,0,0,1,24,19Z" id="id_114"></path><path class="cls-5" d="M18.535,19.622a2.977,2.977,0,0,1-2.844-2.07l-1.233-3.81a3.024,3.024,0,0,1,.233-2.394A2.99,2.99,0,0,1,16.577,9.9a31.163,31.163,0,0,1,14.846,0,2.99,2.99,0,0,1,1.886,1.446,3.027,3.027,0,0,1,.234,2.393h0l-1.233,3.81a2.988,2.988,0,0,1-3.543,1.989,21.36,21.36,0,0,0-9.532,0A3.057,3.057,0,0,1,18.535,19.622ZM24,11a28.874,28.874,0,0,0-6.942.843.972.972,0,0,0-.619.477,1,1,0,0,0-.079.806l1.233,3.81a1,1,0,0,0,1.189.657,23.355,23.355,0,0,1,10.435,0,1,1,0,0,0,1.19-.657l1.233-3.81a1,1,0,0,0-.079-.806.972.972,0,0,0-.619-.477A28.874,28.874,0,0,0,24,11Zm8.591,2.434h0Z" id="id_115"></path><path class="cls-6" d="M24,38a1,1,0,0,1-1-1V27a1,1,0,0,1,2,0V37A1,1,0,0,1,24,38Z" id="id_116" style="fill: rgb(255, 255, 255);"></path></g></svg>