<svg width="43" height="43" viewBox="0 0 43 43" fill="none" xmlns="http://www.w3.org/2000/svg">
<rect x="0.714844" y="0.5" width="42" height="42" rx="21" fill="#ffb703" id="id_101"></rect>
<path d="M16.8966 31.9999C16.702 31.9999 16.6046 31.9999 16.41 31.9026C16.118 31.8053 15.826 31.6106 15.6313 31.3186L11.8352 27.5225L12.5166 26.8412L11.8352 27.5225C11.6406 27.3279 11.3486 27.0359 11.2512 26.7439C11.1539 26.4519 11.1539 26.1598 11.2512 25.8678C11.3486 25.5758 11.5432 25.2838 11.8352 25.0892L25.3648 11.6569C25.5595 11.3649 25.8515 11.1703 26.1435 11.0729C26.4355 10.9756 26.7275 10.9756 27.0195 11.0729C27.3115 11.1703 27.6035 11.3649 27.7982 11.6569L31.5942 15.453C31.8862 15.745 32.0809 15.9397 32.1782 16.2317C32.2756 16.5237 32.2756 16.8157 32.1782 17.1077C32.0809 17.3997 31.8862 17.6917 31.5942 17.8864L18.162 31.3186C17.87 31.6106 17.6753 31.8053 17.3833 31.9026C17.1887 31.9999 17.0913 31.9999 16.8966 31.9999ZM13.3926 26.3545L16.8966 29.8586L30.1342 16.621L26.6301 13.117L25.0728 14.6743L26.3381 15.9397C26.7275 16.329 26.7275 16.913 26.3381 17.3024C25.9488 17.6917 25.3648 17.6917 24.9754 17.3024L23.7101 16.037L22.1527 17.5944L23.4181 18.8597C23.8074 19.2491 23.8074 19.8331 23.4181 20.2224C23.0287 20.6118 22.4447 20.6118 22.0554 20.2224L20.79 18.9571L19.2327 20.5144L20.498 21.7798C20.8874 22.1691 20.8874 22.7531 20.498 23.1425C20.1087 23.5318 19.5247 23.5318 19.1354 23.1425L17.87 21.8771L16.3126 23.4345L17.578 24.6998C17.9673 25.0892 17.9673 25.6732 17.578 26.0625C17.1887 26.4519 16.6046 26.4519 16.2153 26.0625L14.9499 24.7972L13.3926 26.3545ZM13.1979 26.2572L12.6139 26.8412L13.1979 26.2572Z" fill="white" id="id_102"></path>
</svg>