<svg xmlns="http://www.w3.org/2000/svg" xml:space="preserve" width="512px" height="512px" version="1.1" style="shape-rendering:geometricPrecision; text-rendering:geometricPrecision; image-rendering:optimizeQuality; fill-rule:evenodd; clip-rule:evenodd" viewBox="0 0 512 512" xmlns:xlink="http://www.w3.org/1999/xlink">
<defs>
<style type="text/css">
   
    .str0 {stroke:#4D4D4D;stroke-width:0.900003}
    .fil2 {fill:black}
    .fil5 {fill:#4D4D4D}
    .fil6 {fill:#4E7179}
    .fil1 {fill:#B3BFEB}
    .fil7 {fill:#CFDBF5}
    .fil3 {fill:#E43D4C}
    .fil4 {fill:#FA8224}
    .fil0 {fill:#FEAC2B}
   
  </style>
</defs>
<g id="Layer_x0020_1">
<metadata id="CorelCorpID_0Corel-Layer"></metadata>
<path class="fil0" d="M356 317l-351 0c-3,0 -5,-2 -5,-5l0 -218c0,-2 2,-5 5,-5l351 0c3,0 5,3 5,5l0 218c0,3 -2,5 -5,5z" id="id_101"></path>
<path class="fil1" d="M419 231l88 15c3,0 5,2 5,5 0,0 0,-1 0,-1l-26 -81c-4,-11 -10,-17 -18,-17l-54 0 -12 60 17 19z" id="id_102"></path>
<path class="fil2" d="M10 317l0 27c0,4 3,6 6,6l15 0c4,-14 12,-25 24,-33l-45 0z" id="id_103"></path>
<path class="fil1" d="M350 360l-211 0c-2,0 -4,-2 -5,-4 -4,-23 -24,-39 -47,-39 0,0 0,0 0,0 -23,0 -43,16 -47,39 0,2 -2,4 -5,4l-19 0c-9,0 -16,-7 -16,-16l0 -32c0,-3 2,-5 5,-5l82 0c0,0 0,0 0,0l263 0c3,0 5,2 5,5l0 43c0,3 -2,5 -5,5z" id="id_104"></path>
<path class="fil3" d="M494 360l-14 0c-2,0 -4,-2 -5,-4 -4,-23 -24,-39 -47,-39 -23,0 -42,16 -47,39 0,2 -2,4 -4,4l-27 0c-3,0 -5,-2 -5,-5l0 -198c0,-3 2,-5 5,-5l64 0 5 79 88 15c3,0 5,2 5,5l0 91c0,10 -8,18 -18,18z" id="id_105"></path>
<path class="fil0" d="M512 277l0 40 -15 0c-11,0 -20,-9 -20,-20 0,-11 9,-20 20,-20l15 0z" id="id_106"></path>
<path class="fil0" d="M402 277l-21 0c-3,0 -5,-2 -5,-5 0,-2 2,-5 5,-5l21 0c3,0 5,3 5,5 0,3 -2,5 -5,5z" id="id_107"></path>
<path class="fil4" d="M67 255c-2,0 -3,-1 -4,-3 -2,-2 -1,-5 1,-7l59 -42 -59 -42c-2,-2 -3,-5 -1,-7 1,-2 4,-3 7,-1l65 46c1,1 2,3 2,4 0,2 -1,3 -2,4l-65 47c-1,0 -2,1 -3,1z" id="id_108"></path>
<path class="fil4" d="M123 255c-2,0 -3,-1 -4,-3 -2,-2 -1,-5 1,-7l59 -42 -59 -42c-2,-2 -3,-5 -1,-7 1,-2 5,-3 7,-1l65 46c1,1 2,3 2,4 0,2 -1,3 -2,4l-65 47c-1,0 -2,1 -3,1z" id="id_109"></path>
<path class="fil4" d="M179 255c-2,0 -3,-1 -4,-3 -2,-2 -1,-5 1,-7l59 -42 -59 -42c-2,-2 -3,-5 -1,-7 1,-2 5,-3 7,-1l65 46c1,1 2,3 2,4 0,2 -1,3 -2,4l-65 47c-1,0 -2,1 -3,1z" id="id_110"></path>
<path class="fil5 str0" d="M485 423l-458 0c-3,0 -5,-3 -5,-5 0,-3 2,-5 5,-5l458 0c3,0 5,2 5,5 0,2 -2,5 -5,5z" id="id_111"></path>
<g id="_637296656">
<path class="fil6" d="M428 423c-31,0 -57,-26 -57,-58 0,-32 26,-58 57,-58 32,0 58,26 58,58 0,32 -26,58 -58,58z" id="id_112"></path>
<path class="fil7" d="M428 399c-19,0 -34,-15 -34,-34 0,-19 15,-35 34,-35 19,0 35,16 35,35 0,19 -16,34 -35,34z" id="id_113"></path>
</g>
<g id="_637296056">
<path class="fil6" d="M87 423c-32,0 -58,-26 -58,-58 0,-32 26,-58 58,-58 32,0 58,26 58,58 0,32 -26,58 -58,58z" id="id_114"></path>
<path class="fil7" d="M87 399c-19,0 -34,-15 -34,-34 0,-19 15,-35 34,-35 19,0 35,16 35,35 0,19 -16,34 -35,34z" id="id_115"></path>
</g>
</g>
</svg>